<?xml version="1.0" standalone="no"?>
<!DOCTYPE svg PUBLIC "-//W3C//DTD SVG 20010904//EN"
 "http://www.w3.org/TR/2001/REC-SVG-20010904/DTD/svg10.dtd">
<svg version="1.0" xmlns="http://www.w3.org/2000/svg"
 width="500.000000pt" height="500.000000pt" viewBox="0 0 500.000000 500.000000"
 preserveAspectRatio="xMidYMid meet">
<metadata>
Created by potrace 1.11, written by Peter Selinger 2001-2013
</metadata>
<g transform="translate(0.000000,500.000000) scale(0.100000,-0.100000)"
fill="#000000" stroke="none">
<path d="M2623 3660 c-15 -3 -112 -5 -216 -4 -168 1 -212 -4 -194 -23 3 -3 25
-7 49 -9 66 -7 107 -23 144 -60 65 -62 64 -55 64 -569 l0 -465 -680 0 -680 0
0 461 c1 389 3 467 16 498 31 74 106 128 189 135 49 4 60 9 51 24 -3 5 -161 9
-366 9 -318 0 -360 -2 -358 -16 2 -10 18 -16 51 -18 78 -5 132 -39 175 -113
l27 -45 -1 -970 0 -970 -22 -42 c-30 -58 -85 -100 -148 -113 -28 -6 -57 -10
-65 -8 -7 2 -15 -5 -17 -14 -3 -17 19 -18 363 -18 337 0 366 1 363 17 -2 12
-16 17 -54 19 -84 3 -149 49 -185 128 -17 38 -19 74 -19 489 l0 447 680 0 681
0 -3 -464 -3 -464 -31 -44 c-40 -55 -97 -87 -165 -92 -39 -3 -53 -8 -55 -20
-2 -14 32 -16 362 -16 248 0 364 3 364 11 0 7 127 9 408 7 224 -2 430 0 457 4
166 25 322 97 425 198 77 75 106 118 145 215 24 60 28 87 31 185 3 75 -1 133
-10 165 -47 176 -165 307 -342 379 -75 31 -151 51 -284 75 -35 6 -34 6 39 34
207 76 345 205 406 382 20 57 28 214 13 278 -45 205 -210 337 -488 393 -40 8
-1074 12 -1117 4z m957 -64 c70 -10 135 -34 181 -68 49 -35 88 -78 89 -95 0
-7 4 -13 9 -13 12 0 52 -126 59 -190 31 -277 -53 -516 -208 -595 -88 -45 -149
-55 -341 -58 l-144 -2 0 450 c0 438 1 451 21 490 24 46 64 73 126 83 48 8 140
7 208 -2z m-733 -32 c28 -17 49 -57 59 -109 8 -44 9 -1828 1 -1887 -12 -83
-55 -134 -121 -145 -28 -4 -35 -1 -58 34 -15 21 -30 51 -34 67 -4 17 -7 458
-7 980 0 945 0 951 21 991 11 22 33 53 47 68 28 29 47 30 92 1z m746 -1048
c200 -15 336 -85 414 -214 62 -105 82 -217 70 -397 -5 -69 -12 -99 -38 -174
-73 -202 -268 -311 -559 -313 -157 -1 -208 19 -242 97 -9 23 -14 148 -18 508
-3 264 -3 483 0 487 3 5 19 10 35 12 42 4 244 1 338 -6z"/>
</g>
</svg>
